<?xml version="1.0" standalone="no"?>
<!DOCTYPE svg PUBLIC "-//W3C//DTD SVG 20010904//EN"
 "http://www.w3.org/TR/2001/REC-SVG-20010904/DTD/svg10.dtd">
<svg version="1.0" xmlns="http://www.w3.org/2000/svg"
 width="1280.000000pt" height="713.000000pt" viewBox="0 0 1280.000000 713.000000"
 preserveAspectRatio="xMidYMid meet">

<g transform="translate(0.000000,713.000000) scale(0.100000,-0.100000)"
fill="#FFF" stroke="none">
<path d="M8355 6063 c-70 -10 -233 -46 -420 -94 -186 -47 -310 -81 -655 -181
-74 -21 -161 -45 -193 -52 l-59 -14 -26 44 c-15 25 -37 47 -48 50 -67 17 -112
-21 -122 -101 -6 -54 3 -49 -172 -110 -58 -20 -143 -45 -190 -55 -47 -10 -224
-64 -395 -120 -170 -56 -375 -122 -455 -147 -210 -65 -508 -169 -557 -195 -62
-32 -38 -149 31 -148 11 0 80 21 151 46 119 41 502 165 720 234 50 15 164 53
255 83 91 30 183 58 204 62 22 4 94 25 160 47 67 22 144 43 173 47 l51 7 6
-90 c8 -142 20 -591 18 -691 -1 -49 3 -139 8 -200 6 -60 21 -229 35 -375 42
-455 45 -491 66 -629 21 -145 33 -197 72 -304 56 -154 168 -185 211 -60 41
119 30 197 -43 301 -52 74 -77 147 -96 285 -8 62 -17 119 -20 127 -10 32 -47
444 -56 620 -14 291 -22 803 -14 951 l7 135 56 16 c65 20 367 106 522 150 235
66 308 86 348 93 l41 7 3 -58 c3 -49 7 -60 31 -77 26 -20 32 -20 130 -10 219
25 488 146 568 256 40 55 36 84 -16 118 -37 25 -50 27 -170 32 -71 2 -143 3
-160 0z"/>
<path d="M3690 5654 c-228 -29 -679 -140 -865 -213 -38 -15 -83 -33 -100 -39
-78 -28 -283 -115 -405 -171 -74 -35 -156 -71 -181 -81 -25 -10 -61 -27 -80
-38 -19 -10 -70 -38 -114 -62 -538 -290 -855 -497 -1184 -773 -87 -73 -282
-272 -336 -342 -135 -176 -186 -294 -189 -430 -1 -80 3 -100 33 -181 19 -51
49 -112 68 -138 40 -55 153 -150 243 -203 129 -77 372 -167 519 -193 26 -4 98
-17 161 -28 374 -68 572 -82 1160 -82 488 0 910 14 1075 35 61 7 169 16 240
20 190 9 752 82 1050 135 61 11 199 36 309 55 109 20 224 44 255 54 31 10 84
22 118 25 52 6 69 3 104 -15 50 -25 108 -22 224 12 208 62 296 167 219 258
-22 27 -32 31 -74 31 -59 0 -215 -31 -324 -64 -170 -51 -628 -147 -911 -190
-88 -14 -198 -31 -245 -39 -47 -8 -128 -18 -180 -22 -52 -4 -149 -15 -215 -25
-66 -11 -192 -24 -280 -30 -341 -23 -449 -32 -458 -37 -17 -11 -530 -27 -867
-27 -518 -1 -891 27 -1225 90 -167 32 -190 38 -310 81 -265 94 -402 191 -467
329 -29 61 -33 79 -33 154 0 76 4 92 33 152 74 151 256 341 557 582 216 173
521 379 725 491 198 109 560 296 598 309 20 8 120 49 222 93 284 123 491 199
640 236 377 92 445 102 715 102 229 -1 245 -2 345 -28 335 -88 488 -271 465
-556 -4 -46 -15 -111 -25 -145 -10 -33 -26 -88 -36 -121 -19 -64 -50 -115 -70
-115 -8 0 -15 26 -19 73 -13 127 -50 179 -118 162 -53 -14 -62 -36 -62 -164 0
-107 2 -121 29 -178 15 -34 36 -69 46 -78 28 -26 140 -42 179 -26 53 22 123
109 163 202 79 184 102 303 94 476 -5 108 -9 132 -40 207 -58 144 -121 224
-241 304 -116 77 -181 104 -350 144 -76 18 -126 21 -320 23 -126 2 -246 1
-265 -1z"/>
<path d="M10275 5449 c-27 -5 -81 -13 -120 -20 -245 -38 -635 -129 -750 -174
-33 -13 -130 -45 -215 -71 -206 -62 -540 -186 -731 -272 -85 -38 -166 -73
-179 -77 -47 -15 -294 -137 -326 -161 -56 -43 -68 -111 -27 -156 28 -32 70
-21 197 49 271 151 526 258 911 381 402 129 564 176 895 257 263 65 661 91
783 51 61 -20 97 -53 97 -90 0 -101 -335 -379 -955 -793 -377 -251 -395 -261
-498 -279 -45 -8 -127 -23 -182 -33 -55 -11 -120 -22 -145 -26 -226 -33 -762
-156 -875 -201 -96 -38 -115 -57 -115 -108 0 -88 61 -104 193 -53 170 65 527
151 710 171 67 7 77 -8 25 -38 -18 -10 -109 -69 -203 -131 -93 -62 -276 -181
-405 -265 -129 -83 -278 -181 -330 -217 -52 -36 -178 -122 -280 -191 -266
-180 -388 -271 -531 -393 -170 -146 -252 -236 -326 -361 -61 -100 -63 -107
-63 -172 l0 -68 58 -56 c84 -84 128 -97 317 -97 137 0 165 3 325 38 96 22 222
54 280 72 58 19 125 39 150 45 54 14 311 104 470 165 63 24 160 61 215 81 231
84 262 96 321 124 34 17 66 30 71 30 6 0 115 43 244 96 129 53 267 107 307
120 40 13 94 35 120 48 26 13 133 55 237 94 105 39 312 117 460 175 149 57
356 130 460 160 105 31 223 68 264 82 41 14 84 25 96 25 12 0 55 8 96 19 96
24 287 47 298 35 5 -5 14 -49 20 -98 16 -119 59 -204 149 -294 61 -62 208
-172 229 -172 4 0 25 25 46 55 21 30 45 55 53 55 8 0 50 -18 93 -41 91 -46
121 -46 121 1 0 31 -26 56 -105 103 -43 25 -47 31 -41 57 3 16 29 67 58 114
58 94 68 99 131 67 20 -10 55 -26 76 -35 37 -14 41 -14 63 4 l23 18 -21 29
c-11 15 -45 42 -74 58 -66 37 -78 55 -63 92 41 102 41 94 10 116 -58 44 -235
105 -343 118 l-103 13 -99 -37 c-90 -34 -108 -37 -199 -37 -55 0 -149 -9 -209
-19 -60 -11 -131 -22 -159 -26 -45 -5 -125 -25 -295 -72 -91 -24 -431 -134
-495 -159 -33 -13 -236 -88 -451 -168 -216 -79 -400 -149 -410 -154 -38 -20
-149 -62 -164 -62 -9 0 -24 -6 -35 -14 -25 -17 -420 -175 -580 -231 -66 -24
-167 -62 -225 -85 -58 -23 -183 -71 -279 -106 -95 -35 -185 -71 -200 -79 -14
-9 -55 -24 -91 -35 -36 -11 -119 -38 -185 -60 -66 -22 -212 -64 -325 -92 -253
-62 -395 -74 -473 -40 -44 20 -47 23 -47 59 0 44 34 90 135 184 172 160 578
462 850 634 152 95 296 190 448 294 84 57 220 146 302 199 83 52 214 138 293
191 239 160 333 219 425 267 82 42 99 47 235 66 186 25 728 37 918 19 139 -13
164 -8 164 36 0 70 -64 119 -198 150 -56 13 -359 24 -629 23 -22 0 -14 26 10
37 25 12 182 130 357 268 63 50 169 132 235 182 208 158 397 369 426 475 27
103 -31 227 -131 278 -79 40 -149 50 -346 49 -104 -1 -211 -5 -239 -10z"/>
<path d="M6740 710 l0 -451 58 3 57 3 0 445 0 445 -57 3 -58 3 0 -451z"/>
<path d="M9860 710 l0 -451 58 3 57 3 0 445 0 445 -57 3 -58 3 0 -451z"/>
<path d="M2595 1075 c-51 -50 -24 -145 40 -145 43 0 65 29 65 86 0 34 -5 47
-26 63 -34 27 -50 26 -79 -4z"/>
<path d="M3348 1087 c-59 -46 -36 -157 33 -157 85 0 93 146 9 164 -14 3 -33 0
-42 -7z"/>
<path d="M11162 1094 c-17 -8 -42 -58 -42 -87 0 -37 36 -77 70 -77 63 0 92 84
48 142 -14 18 -55 30 -76 22z"/>
<path d="M326 1043 c-3 -21 -19 -166 -36 -323 -16 -157 -34 -321 -40 -364 -5
-44 -10 -83 -10 -88 0 -5 28 -8 63 -6 l62 3 8 85 c16 182 48 485 52 488 5 5
10 -15 46 -183 18 -82 44 -204 59 -270 l27 -120 36 -3 35 -3 15 68 c9 37 37
168 63 291 27 122 51 222 54 222 3 0 14 -84 23 -187 10 -104 23 -234 29 -290
l12 -103 58 0 c56 0 58 1 58 27 0 25 -34 344 -68 643 l-17 145 -71 3 -71 3
-17 -63 c-9 -35 -34 -142 -57 -238 -22 -96 -41 -176 -44 -178 -2 -2 -6 5 -9
15 -11 38 -96 433 -96 447 0 13 -14 16 -79 16 l-79 0 -6 -37z"/>
<path d="M4880 670 l0 -410 60 0 60 0 0 410 0 410 -60 0 -60 0 0 -410z"/>
<path d="M9430 670 l0 -410 160 0 160 0 0 70 0 69 -97 3 -98 3 0 100 0 100 98
3 97 3 0 69 0 70 -100 0 -100 0 0 95 0 95 100 0 100 0 0 70 0 70 -160 0 -160
0 0 -410z"/>
<path d="M7942 988 c-11 -13 -25 -35 -31 -50 -8 -21 -6 -29 11 -45 20 -18 21
-17 35 5 20 28 35 28 81 -3 48 -33 85 -32 111 2 32 40 38 73 16 89 -16 12 -21
11 -37 -6 -24 -26 -37 -25 -78 5 -42 31 -80 32 -108 3z"/>
<path d="M1550 886 c0 -80 -1 -85 -22 -88 -21 -3 -23 -9 -26 -65 -3 -62 -2
-63 23 -63 l25 0 0 -205 0 -206 58 3 57 3 3 203 2 202 31 0 30 0 -3 63 c-3 59
-4 62 -30 65 -27 3 -27 4 -30 85 l-3 82 -57 3 -58 3 0 -85z"/>
<path d="M5990 885 c0 -84 0 -85 -25 -85 -24 0 -25 -2 -25 -65 0 -63 1 -65 25
-65 l25 0 0 -205 0 -206 57 3 57 3 -1 176 c-1 213 1 229 33 229 23 0 24 3 24
65 0 63 -1 65 -25 65 -14 0 -25 3 -26 8 0 4 -1 41 -2 82 l-2 75 -57 3 -58 3 0
-86z"/>
<path d="M10557 963 c-4 -3 -7 -42 -7 -85 0 -71 -2 -78 -20 -78 -18 0 -20 -7
-20 -65 0 -58 2 -65 20 -65 19 0 20 -8 22 -202 l3 -203 58 -3 57 -3 0 206 0
205 30 0 30 0 0 65 0 65 -30 0 -30 0 0 85 0 85 -53 0 c-30 0 -57 -3 -60 -7z"/>
<path d="M1113 790 c-124 -75 -150 -341 -46 -478 32 -42 72 -62 127 -62 36 0
52 6 81 31 l35 31 0 -26 c0 -26 1 -27 58 -24 l57 3 0 265 0 265 -55 0 c-50 0
-55 -2 -58 -23 -3 -23 -4 -23 -38 8 -28 24 -44 30 -82 30 -29 0 -59 -8 -79
-20z m159 -143 c41 -51 48 -138 18 -204 -34 -77 -104 -83 -144 -13 -40 67 -21
208 31 240 26 15 75 3 95 -23z"/>
<path d="M1885 791 c-44 -27 -71 -60 -97 -116 -19 -42 -23 -67 -23 -150 0 -90
3 -106 28 -158 39 -79 82 -110 162 -115 48 -3 70 0 103 17 35 18 92 81 92 102
0 4 -20 19 -44 33 l-44 26 -30 -30 c-51 -50 -103 -36 -142 38 -24 48 -12 53
137 51 l138 -1 3 33 c4 40 -14 132 -35 174 -20 39 -61 83 -95 101 -39 20 -117
18 -153 -5z m117 -115 c15 -11 48 -74 48 -91 0 -3 -38 -5 -85 -5 -94 0 -99 4
-70 60 25 48 71 64 107 36z"/>
<path d="M2421 794 c-12 -9 -31 -35 -41 -58 l-19 -41 0 53 -1 53 -57 -3 -58
-3 -3 -267 -2 -268 60 0 60 0 0 130 c0 210 26 277 104 268 41 -5 41 -4 51 90
l7 62 -39 0 c-21 0 -49 -7 -62 -16z"/>
<path d="M2893 790 c-73 -44 -119 -165 -110 -291 10 -156 82 -249 191 -249 36
0 52 6 81 31 l35 31 0 -26 c0 -25 2 -26 60 -26 l60 0 0 270 0 270 -60 0 c-58
0 -60 -1 -60 -26 l0 -26 -35 31 c-29 25 -44 31 -83 31 -29 0 -59 -8 -79 -20z
m124 -116 c90 -24 90 -257 0 -288 -39 -14 -75 7 -97 57 -32 70 -21 167 25 213
25 25 36 28 72 18z"/>
<path d="M3610 788 c-45 -30 -70 -81 -70 -143 0 -72 25 -114 90 -153 78 -46
90 -58 90 -92 0 -45 -39 -58 -94 -31 l-40 21 -28 -27 c-34 -32 -35 -49 -5 -75
32 -29 61 -38 119 -38 103 0 161 57 162 159 1 74 -24 117 -94 159 -83 49 -92
58 -88 95 3 29 6 32 41 35 26 2 45 -2 58 -14 11 -9 21 -15 22 -13 2 2 14 21
27 42 l23 39 -26 26 c-22 21 -38 27 -89 30 -53 3 -68 0 -98 -20z"/>
<path d="M4253 782 c-28 -21 -51 -51 -74 -97 -30 -61 -33 -75 -32 -158 0 -111
25 -178 84 -232 46 -41 72 -49 144 -43 61 5 115 39 141 90 16 30 15 32 -7 49
-57 43 -66 44 -94 10 -47 -55 -115 -36 -144 42 -6 16 -8 33 -5 38 3 6 64 9
142 8 l137 -1 3 51 c4 63 -18 144 -51 188 -43 59 -75 77 -141 81 -55 3 -65 1
-103 -26z m129 -103 c18 -10 48 -65 48 -89 0 -6 -34 -10 -86 -10 -74 0 -85 2
-80 16 3 9 6 19 6 24 0 5 12 22 26 39 27 32 52 38 86 20z"/>
<path d="M5283 789 c-18 -12 -33 -25 -33 -30 0 -5 -4 -9 -10 -9 -5 0 -10 11
-10 25 0 24 -3 25 -55 25 -48 0 -55 -3 -60 -22 -3 -13 -4 -133 -3 -268 l3
-245 57 -3 56 -3 4 173 c4 196 16 242 64 254 67 17 83 -31 83 -253 l1 -173 55
0 54 0 7 37 c10 52 -3 371 -16 417 -7 22 -25 52 -40 68 -23 23 -37 28 -77 28
-31 0 -59 -8 -80 -21z"/>
<path d="M5663 794 c-49 -24 -75 -73 -75 -142 -1 -85 26 -129 102 -167 80 -40
103 -90 55 -121 -27 -18 -59 -12 -90 17 -20 17 -21 17 -54 -22 -31 -38 -32
-41 -16 -59 28 -31 80 -50 137 -50 98 0 158 60 158 160 0 77 -31 127 -100 162
-68 34 -81 49 -78 87 3 34 5 36 41 39 25 2 45 -2 57 -13 16 -14 19 -13 44 26
22 33 25 43 15 55 -36 44 -135 58 -196 28z"/>
<path d="M6309 786 c-90 -61 -131 -219 -94 -361 30 -115 91 -175 177 -175 39
0 54 6 83 31 l35 31 0 -26 c0 -25 2 -26 60 -26 l60 0 -2 268 -3 267 -55 0
c-50 0 -55 -2 -58 -23 -3 -23 -4 -23 -38 8 -46 40 -112 42 -165 6z m156 -130
c48 -48 58 -146 23 -216 -44 -86 -118 -78 -151 15 -47 135 46 283 128 201z"/>
<path d="M7065 801 c-32 -14 -72 -55 -97 -102 -21 -39 -23 -57 -23 -169 0
-120 1 -127 30 -179 38 -69 84 -101 147 -101 39 0 54 6 83 31 l35 31 0 -26 c0
-25 2 -26 60 -26 l60 0 -2 268 -3 267 -55 0 c-49 0 -55 -2 -60 -25 -5 -21 -8
-22 -16 -9 -26 43 -104 62 -159 40z m123 -137 c46 -32 67 -142 41 -211 -24
-63 -79 -91 -120 -60 -31 23 -49 75 -49 137 0 66 17 110 52 134 28 20 48 20
76 0z"/>
<path d="M7590 797 c-86 -46 -124 -100 -142 -204 -22 -130 19 -255 104 -310
31 -21 56 -28 107 -31 92 -5 109 10 113 101 2 37 2 67 1 67 -1 0 -17 -9 -35
-20 -76 -46 -158 -3 -172 91 -20 135 75 228 172 169 l32 -20 0 74 c0 68 -2 73
-25 84 -35 16 -124 15 -155 -1z"/>
<path d="M7970 799 c-35 -14 -88 -68 -110 -110 -44 -84 -44 -234 0 -318 26
-52 92 -109 135 -117 101 -19 177 20 230 117 25 47 30 67 33 149 4 92 3 97
-30 159 -47 91 -92 124 -171 128 -34 2 -73 -2 -87 -8z m119 -135 c33 -23 51
-74 51 -141 0 -132 -103 -190 -167 -94 -28 41 -32 144 -8 191 29 57 80 75 124
44z"/>
<path d="M8445 796 c-39 -17 -82 -67 -109 -126 -21 -48 -29 -179 -13 -251 11
-54 61 -122 107 -148 59 -33 152 -27 204 12 30 24 66 73 66 91 0 3 -20 17 -44
31 l-44 26 -30 -31 c-37 -37 -79 -40 -110 -7 -24 26 -45 75 -36 88 3 5 69 9
146 9 l141 0 -6 75 c-6 71 -31 138 -69 186 -43 53 -137 74 -203 45z m115 -126
c20 -20 40 -61 40 -81 0 -5 -38 -9 -85 -9 -53 0 -85 4 -85 10 0 18 32 74 49
87 24 19 59 15 81 -7z"/>
<path d="M8850 788 c-45 -30 -70 -80 -70 -140 0 -84 23 -113 153 -192 21 -13
27 -24 27 -51 0 -57 -51 -67 -112 -23 -15 11 -23 8 -50 -20 -38 -37 -34 -51
22 -89 25 -18 47 -23 93 -23 108 0 161 54 162 166 0 51 -4 66 -28 97 -16 21
-47 47 -70 58 -78 39 -107 85 -75 117 17 17 73 15 88 -3 7 -8 15 -15 19 -15 9
0 51 68 51 82 -1 27 -54 52 -115 56 -50 3 -66 0 -95 -20z"/>
<path d="M10184 791 c-80 -49 -124 -142 -124 -266 0 -127 49 -229 126 -261 43
-18 128 -18 163 0 34 18 91 81 91 101 0 8 -18 27 -40 41 l-40 26 -29 -31 c-31
-33 -75 -41 -103 -18 -25 20 -48 60 -48 84 0 22 2 22 136 22 75 0 141 4 146 9
17 17 -10 161 -38 209 -38 66 -95 103 -158 103 -32 0 -62 -7 -82 -19z m124
-124 c13 -13 27 -38 32 -55 l9 -32 -85 0 c-93 0 -98 4 -69 60 28 54 77 65 113
27z"/>
<path d="M10964 783 c-13 -14 -28 -38 -32 -52 -6 -23 -7 -20 -12 19 l-5 45
-57 3 -58 3 0 -271 0 -271 58 3 57 3 5 165 c4 136 8 171 23 193 19 29 54 42
91 33 22 -5 24 -2 33 67 6 39 8 75 6 80 -2 4 -22 7 -44 7 -30 0 -46 -6 -65
-27z"/>
<path d="M11475 793 c-44 -23 -84 -63 -108 -108 -19 -34 -22 -56 -22 -155 0
-99 3 -121 22 -156 30 -55 94 -111 138 -120 48 -9 131 0 150 16 17 14 22 150
5 150 -5 0 -10 -4 -10 -8 0 -12 -47 -32 -75 -32 -39 0 -74 21 -96 57 -18 28
-21 46 -17 104 3 62 7 73 36 102 27 26 40 32 76 32 28 0 51 -6 63 -17 11 -10
23 -18 26 -18 4 0 7 31 7 70 0 67 -1 70 -30 85 -38 19 -126 19 -165 -2z"/>
<path d="M11834 791 c-76 -47 -114 -139 -114 -271 1 -173 82 -279 203 -267 39
3 56 11 74 31 13 15 24 23 24 19 1 -4 2 -15 3 -23 1 -11 16 -16 59 -18 l57 -3
0 271 0 270 -55 0 c-47 0 -55 -3 -55 -18 0 -31 -11 -32 -34 -5 -31 36 -116 43
-162 14z m134 -127 c35 -24 52 -68 52 -134 0 -64 -9 -90 -43 -127 -56 -62
-137 9 -137 120 0 63 18 114 47 137 31 24 51 25 81 4z"/>
<path d="M12315 791 c-58 -35 -69 -57 -73 -134 -4 -88 14 -123 85 -163 96 -55
118 -97 68 -130 -23 -15 -27 -15 -67 5 l-43 21 -34 -34 -34 -35 32 -30 c60
-56 179 -57 236 -1 90 87 61 224 -59 285 -70 35 -78 45 -74 87 3 30 6 33 41
36 26 2 45 -2 57 -13 18 -16 20 -15 46 24 22 34 25 43 14 57 -39 46 -141 59
-195 25z"/>
<path d="M2580 530 l0 -271 58 3 57 3 0 265 0 265 -57 3 -58 3 0 -271z"/>
<path d="M3320 530 l0 -270 60 0 60 0 0 270 0 270 -60 0 -60 0 0 -270z"/>
<path d="M11137 793 c-4 -3 -7 -125 -7 -270 l0 -263 60 0 60 0 0 270 0 270
-53 0 c-30 0 -57 -3 -60 -7z"/>
<path d="M7623 145 c-24 -46 -43 -90 -43 -97 0 -12 39 -44 44 -36 2 2 29 39
61 82 l58 80 -32 28 c-17 15 -35 28 -39 28 -4 0 -26 -38 -49 -85z"/>
</g>
</svg>
