<svg width="1642" height="950" viewBox="0 0 1642 950" fill="none" xmlns="http://www.w3.org/2000/svg">
<path d="M878.105 746.552C877.233 747.928 866.349 756.701 865 757.178C856.772 760.12 847.018 761.714 838.939 766.278C830.084 771.264 821.27 783.62 811.816 787.148C794.255 793.687 770.306 786.74 758.795 772.327C756.043 768.866 756.656 764.834 755.757 763.717C754.34 761.959 734.178 757.055 729.955 755.08C729.464 754.848 721.862 749.753 721.168 749.222C718.879 747.464 710.978 738.923 713.838 736.171C716.509 733.61 719.819 738.814 721.236 738.991C739.041 741.252 801.789 741.307 819.499 738.991C822.019 738.664 821.284 736.443 822.387 736.185C825.643 735.422 830.207 736.634 833.721 736.144C834.689 735.176 831.705 726.063 830.765 725.49C828.327 724.005 808.192 726.022 802.974 725.368C800.372 725.041 801.68 722.752 799.064 722.425C791.463 721.472 766.968 721.472 759.38 722.425C756.778 722.752 758.086 725.041 755.471 725.368C739.082 727.439 715.337 725.041 699.453 722.602C694.466 721.839 688.064 723.474 683.486 722.466C683.037 722.371 676.402 717.031 676.212 716.608C672.424 708.625 675.98 709.075 678.378 705.178C679.563 703.258 680.04 700.179 681.061 698.885C683.418 695.915 692.191 695.779 692.001 689.28C691.783 682.074 687.75 685.384 683.568 683.995C676.252 681.542 675.081 679.472 675.653 671.434C676.361 661.38 690.693 661.108 690.802 650.945C690.87 644.202 675.367 649.338 675.571 636.001C675.721 626.301 685.394 621.315 694.071 620.334C736.603 615.552 789.596 625.552 831.705 620.375C839.034 619.476 836.555 617.119 846.895 617.5C852.617 617.705 867.03 617.541 868.896 624.094C869.4 625.865 869.087 639.093 868.515 640.85C867.943 642.608 865.136 645.196 865.136 645.55C865.136 646.722 873.119 649.133 873.269 659.105C873.419 669.077 872.792 675.644 874.986 686.011C876.28 692.114 880.871 701.541 881.389 705.614C882.192 712.085 882.151 731.825 881.429 738.214C881.034 741.702 879.917 743.691 878.119 746.538L878.105 746.552ZM753.318 639.447C741.943 637.39 729.995 639.188 718.661 638.003C715.868 637.703 713.689 635.265 710.419 635.265C707.94 635.265 699.166 638.752 698.131 640.782C695.543 645.904 699.275 664.881 707.763 665.249C734.178 662.661 768.099 668.968 793.588 665.399C796.994 664.922 798.724 662.961 802.961 662.511C810.385 661.707 819.295 663.287 826.91 662.62L825.534 665.317C842.195 668.369 851.772 643.548 867.098 659.868C870.681 658.097 865.64 649.337 864.087 648.956C860.314 648.002 856.104 650.209 852.453 650.019C846.595 649.705 843.053 645.182 837.822 644.896C838.094 650.618 834.525 653.806 829.008 654.501C822.06 655.359 806.843 655.781 801.803 651.613L719.288 651.708C720.691 648.166 721.794 644.079 725.704 642.471L753.345 639.474L753.318 639.447ZM788.37 676.652C781.245 673.355 751.479 677.483 743.033 678.872C738.891 679.553 733.183 678.055 729.723 678.9C726.998 679.553 725.854 692.168 723.824 692.632C721.794 693.095 718.797 692.264 716.536 692.563C716.522 687.755 719.22 683.681 716.331 679.145C708.049 678.164 700.951 677.823 700.12 687.809C699.902 690.452 701.646 703.789 702.763 705.41C703.785 706.895 717.735 705.505 721.236 708.993L801.012 708.911L799.637 706.214C804.091 707.944 804.909 704.252 805.549 703.939C807.102 703.203 809.05 703.734 810.113 703.026C813.736 700.601 815.48 695.193 814.595 690.847C814.104 688.463 800.372 679.703 797.511 679.036C794.991 678.45 792.076 679.458 789.664 678.94C788.711 678.736 788.738 676.842 788.37 676.665V676.652Z" fill="#1E1E1E"/>
<path d="M763.536 590.39C771.437 587.857 761.26 552.45 767.35 547.11C767.977 546.551 769.979 547.233 771.11 545.938C777.159 538.977 776.627 520.899 765.484 518.774C765.007 498.871 766.396 478.777 765.62 458.887C765.184 447.88 764.489 430.17 762.514 419.762C761.71 415.525 758.672 411.097 755.389 408.414C749.163 403.332 736.63 400.172 728.933 396.126C692.668 377.08 658.066 334.931 673.542 291.95C675.966 285.22 685.394 285.86 690.979 283.79C692.491 283.231 691.946 279.798 696.074 281.174C694.167 284.621 690.339 289.212 689.562 293.04C682.628 327.479 702.64 360.733 729.478 380.582C740.567 388.783 761.206 402.692 758.549 377.38C755.893 352.069 736.249 306.132 719.288 287.522C716.822 284.825 706.904 281.542 704.234 278.463C708.58 280.466 710.038 275.875 710.61 275.752C713.021 275.221 715.855 276.229 718.307 275.711C719.383 275.48 718.62 273.273 721.168 272.905C725.227 272.319 731.371 273.654 734.314 276.624C734.804 277.114 741.575 286.405 742.352 287.631C757.432 311.186 762.418 340.666 771.668 366.999C773.889 365.188 775.265 363.566 776.518 360.951C786.259 340.625 788.316 317.684 796.244 297.576C797.416 294.606 806.898 273.94 808.042 273.232C809.282 272.469 811.884 273.545 813.001 272.823C813.777 272.319 813.668 269.649 814.595 268.586C823.518 258.233 835.629 251.135 847.726 248.479C848.761 248.247 848.543 246.054 849.592 245.795C851.581 245.318 859.428 245.359 861.69 245.659C863.951 245.958 863.27 247.716 864.768 248.37C865.749 248.792 867.561 248.22 868.665 248.928C871.457 250.713 876.689 258.137 877.179 261.53C879.127 275.139 878.16 301.99 873.201 314.591C862.357 342.165 833.544 356.455 816.556 377.789C811.393 384.273 807.225 390.717 801.816 397.147C789.038 412.364 780.741 423.249 779.12 445.291C776.11 486.256 781.382 528.828 780.66 569.316C780.578 573.798 776.409 588.592 781.409 590.241C786.926 592.039 796.898 588.647 803.165 591.657C820.398 587.966 840.424 592.502 857.535 590.459C861.499 589.982 865.995 586.699 868.242 583.511C877.411 570.555 877.779 519.142 881.443 499.933C882.887 492.345 887.451 483.953 886.811 475.998C890.748 475.507 891.238 475.957 891.878 479.73C894.521 495.356 892.083 500.792 890.898 514.837C888.813 539.631 890.271 557.341 880.68 580.922C880.108 582.339 880.994 584.342 880.312 585.963C878.351 590.663 865.15 600.213 860.041 600.88C820.739 606.016 780.769 599.382 741.711 599.845C719.397 600.104 688.227 609.395 669.141 594.886C662.03 589.478 657.194 577.394 657.943 568.648C663.651 569.792 667.193 564.725 672.888 565.951C672.166 570.705 680.285 590.445 684.508 590.445H763.522L763.536 590.39ZM860.409 262.647C841.786 253.192 826.529 266.666 817.578 282.06C803.546 306.186 797.144 338.35 788.834 363.934C787.403 368.334 781.681 380.772 786.014 382.68C790.686 384.737 791.218 380.377 794.31 378.62C797.852 376.604 802.729 375.173 806.761 372.353C811.039 369.37 808.819 366.509 816.706 367.122C833.817 348.472 875.667 310.055 873.079 283.354C872.384 276.202 866.553 265.753 860.423 262.647H860.409Z" fill="#1E1E1E"/>
<path d="M834.703 7.74551C847.618 13.4672 862.249 17.595 875.695 23.4938C930.609 47.5657 970.348 93.7343 993.194 149.575C993.97 151.482 996.409 163.389 995.809 163.975C992.063 164.234 979.189 169.056 976.805 166.645C976.029 165.855 972.95 148.336 971.819 145.066C965.048 125.599 942.107 94.7015 928.47 79.4573C902.232 50.1541 869.224 29.8149 831.297 18.5758C721.073 -14.0923 581.886 50.3176 561.588 173.184C560.784 178.034 559.585 203.672 558.441 204.776C556.479 206.669 547.651 204.435 546.262 201.098C544.545 196.984 547.065 186.466 548.06 181.453C562.092 110.722 607.361 53.1103 670.436 23.521C709.166 5.36148 741.78 -2.11759 790.782 0.511665C799.038 0.961226 828.137 4.83018 834.717 7.73189L834.703 7.74551Z" fill="#1E1E1E"/>
<path d="M611.625 356.074C617.66 371.727 624.717 386.985 631.392 402.392C644.525 432.69 657.344 463.519 664.387 496.092C666.117 504.075 670.327 525.327 670.313 532.52C670.313 538.132 665.286 540.38 659.878 541.307C650.437 542.928 651.827 533.065 651.554 525.858C650.887 508.121 645.397 489.484 639.839 471.584C629.621 438.684 615.317 406.084 600.059 375.282C599.691 373.116 606.081 360.542 607.756 358.335C608.928 356.796 609.187 355.556 611.612 356.087L611.625 356.074Z" fill="#1E1E1E"/>
<path d="M911.345 411.247C913.225 400.062 930.731 371.1 936.221 358.349C940.553 348.281 940.798 342.055 948.155 330.912C974.706 290.71 989.392 255.781 986.272 205.539C986.081 202.365 983.479 198.005 983.82 196.207C984.569 192.27 1001.05 185.445 1002.06 191.861C1000.48 221.45 998.124 250.263 988.275 278.395C977.594 308.911 960.838 334.617 945.117 361.932C932.87 383.211 927.216 409.217 916.631 431.259C916.059 432.458 913.334 435.782 911.332 435.101C912.176 427.799 910.174 418.208 911.332 411.261L911.345 411.247Z" fill="#1E1E1E"/>
<path d="M552.678 235.277C552.95 235.4 552.855 236.79 554.163 237.471C555.375 238.097 557.296 236.817 558.672 238.397C560.797 240.836 565.089 262.782 567.663 268.559C573.78 282.318 579.788 296.145 585.945 310.259C586.613 311.771 588.983 312.874 589.569 314.795C590.918 319.304 585.523 341.129 582.363 341.047C578.698 336.551 577.227 330.612 574.666 325.612C569.707 315.899 562.8 305.286 558.141 295.75C553.482 286.214 551.384 274.28 549.354 263.736C548.114 257.251 544.286 240.945 544.886 235.509C545.035 234.201 551.016 234.514 552.692 235.264L552.678 235.277Z" fill="#1E1E1E"/>
<path d="M1427.21 235.026C1445.53 254.045 1433.19 275.773 1419.59 292.23C1401.86 313.691 1379.84 327.826 1358.37 344.776C1337.68 361.112 1317.43 378.129 1295.56 392.717C1299.96 399.057 1306.39 394.8 1312.16 394.666C1330.67 394.239 1391.24 393.118 1403.66 406.411C1406.4 409.348 1411.26 418.503 1407.68 422.107C1403.74 426.071 1386.47 421.587 1380.35 421.36C1347.22 420.105 1265.9 418.463 1237.64 430.916C1213.5 441.567 1188.38 462.187 1165.97 476.695C1104.96 516.202 1040.55 555.561 982.041 598.404C961.527 613.419 930.109 635.708 913.786 654.274C879.885 692.886 953.732 678.351 971.257 674.374C993.639 669.289 1014.86 661.601 1036.38 654.073C1154.63 612.618 1269.69 560.339 1388.69 520.566C1424.78 508.5 1472.09 493.953 1509.78 490.843C1518.65 490.109 1529.2 491.964 1537.71 490.736C1545.75 489.575 1554.87 482.114 1563.34 481.553C1577.01 480.659 1601.17 487.64 1613.68 493.672C1637.11 504.977 1616.68 506.752 1620.43 520.286C1622.04 526.105 1643.53 529.135 1639.33 540.292C1631.28 546.298 1616.29 529.375 1609.4 533.739C1607.12 542.148 1589.17 557.269 1596.4 565.691C1599.55 569.348 1622.5 577.45 1612.65 585.711C1607.56 589.969 1593.46 576.182 1587.18 576.102C1579.32 576.008 1578.2 590.249 1571.26 589.622C1568.2 589.342 1546.46 572.899 1543.15 569.549C1528.04 554.32 1521.97 537.423 1520.53 516.095C1516.51 510.129 1478.34 521.046 1470.99 522.768C1405.84 538.064 1343.12 562.995 1280.54 587.246C1184.62 624.404 1089.7 669.409 989.582 694.02C959.712 701.361 915.147 714.734 889.174 692.325C881.914 686.052 880.779 681.207 880.979 671.451C881.406 650.323 914.827 618.144 930.709 604.517C967.907 572.605 1013.9 542.468 1054.86 515.067C1092.81 489.682 1132.26 466.392 1170.03 440.712L1169.42 437.429C1156.06 438.23 1141.83 440.606 1128.67 443.395C1112.51 446.825 1093.61 451.817 1077.71 456.502C1067.58 459.491 1041.49 475.374 1041.83 452.765C1041.94 445.717 1049.22 442.861 1054.95 440.432C1085.05 427.686 1128.56 422.134 1161.09 415.767C1194.21 409.281 1222.22 408.28 1251.69 390.248C1294.18 364.249 1357.14 322.14 1392.33 288.012C1405.81 274.946 1426.83 255.126 1394.66 248.239C1355.36 239.831 1289.35 256.674 1250.15 267.258C1200.02 280.792 1140.81 299.05 1093.73 320.378C1082.1 325.637 1046.35 347.846 1038.55 349.274C1027.02 351.383 1021.39 346.017 1024.9 334.285C1028.05 323.742 1068.73 309.394 1079.31 304.629C1155.12 270.555 1239.47 240.044 1321.97 226.964C1346.81 223.027 1408.75 215.873 1427.22 235.039L1427.21 235.026Z" fill="#1E1E1E"/>
<path d="M551.662 203.061C598.549 217.248 627.338 250.215 624.255 302.027C623.12 321.073 608.853 365.077 593.344 375.22C586.323 379.798 572.963 379.291 566.29 374.553C562.673 371.977 555.839 355.654 555.119 351.023C553.237 338.957 552.343 313.305 571.215 318.924C580.451 321.673 577.701 342.094 580.184 349.328C587.498 354.213 595.92 324.583 596.907 320.018C605.302 280.859 598.816 249.548 561.245 231.77C542.906 223.094 514.131 218.61 491.481 218.463C368.585 217.702 175.23 321.967 83.0443 401.407C64.3455 417.53 25.2395 454.66 24.1051 479.659C20.9285 550.13 157.693 564.411 207.142 568.188C299.302 575.221 396.946 569.149 488.759 560.206C561.845 553.093 634.532 542.001 705.683 524.878C719.017 521.661 755.053 508.621 766.691 512.558C767.078 512.692 772.177 518.084 772.35 518.458C782.827 541.08 739.41 553.92 723.448 554.761C714.292 555.241 711.703 549.048 700.985 549.542C692.737 549.929 685.917 553.827 679.524 554.788C616.887 564.25 550.114 579.426 484.728 585.552C372.562 596.056 223.692 603.263 114.035 578.558C53.1743 564.851 -30.0427 523.396 10.9051 448.067C38.1859 397.883 119.227 339.852 168.41 310.609C264.373 253.552 440.016 169.254 551.675 203.034L551.662 203.061Z" fill="#1E1E1E"/>
<path d="M1132.31 149.527C1133.27 150.661 1133.97 152.45 1133.99 153.918C1134.22 169.454 1091.2 187.779 1078.27 191.476C1070 193.838 1046.53 198.75 1039.15 196.628C1031 194.279 1034.43 183.067 1032.49 177.301C1022.12 176.941 1012.34 181.305 1002.52 183.788C997.417 185.069 988.261 184.696 984.911 189.1L903.282 212.003C900.96 231.649 901.934 251.523 901.881 271.329C901.734 317.109 903.896 363.088 908.487 408.761C910.61 429.875 911.771 455.207 917.47 475.855C924.183 500.173 943.896 504.897 933.166 534.847C929.375 545.431 922.341 549.809 912.972 541.08C905.484 534.1 898.304 507.206 896.649 496.676C884.023 416.622 882.181 334.713 879.084 253.979C878.884 248.84 880.272 223.054 877.643 221.386C864.47 221.359 852.711 227.725 840.432 231.222C797.416 243.488 754.853 258.45 711.916 269.314C708.259 270.235 696.354 276.721 694.045 277.242C679.617 280.539 667.312 288.066 653.044 290.856C637.322 293.939 634.786 276.615 648.64 270.315C661.079 264.656 680.258 258.476 693.645 253.925C743.362 237.042 794.239 223.401 844.41 208.493C856.222 204.983 867.633 198.99 879.698 196C881.06 195.039 879.792 177.328 888.347 175.073C903.963 170.948 901.467 186.924 908.581 187.205C914.974 187.458 937.93 180.011 945.912 177.849C991.584 165.503 1074.77 134.966 1119.99 142.533C1122.02 142.867 1131.24 148.206 1132.35 149.514L1132.31 149.527Z" fill="#1E1E1E"/>
<path d="M316 807.466C309.2 814.133 312.8 826.8 321.333 826.8C327.067 826.8 330 822.933 330 815.333C330 810.8 329.333 809.066 326.533 806.933C322 803.333 319.867 803.466 316 807.466Z" fill="#1E1E1E"/>
<path d="M416.4 805.866C408.533 812 411.6 826.8 420.8 826.8C432.133 826.8 433.2 807.333 422 804.933C420.133 804.533 417.6 804.933 416.4 805.866Z" fill="#1E1E1E"/>
<path d="M1458.27 804.933C1456 806 1452.67 812.666 1452.67 816.533C1452.67 821.466 1457.47 826.8 1462 826.8C1470.4 826.8 1474.27 815.6 1468.4 807.866C1466.53 805.466 1461.07 803.866 1458.27 804.933Z" fill="#1E1E1E"/>
<path d="M1028.93 819.067C1027.47 820.8 1025.6 823.733 1024.8 825.733C1023.73 828.533 1024 829.6 1026.27 831.733C1028.93 834.133 1029.07 834 1030.93 831.067C1033.6 827.333 1035.6 827.333 1041.73 831.467C1048.13 835.867 1053.07 835.733 1056.53 831.2C1060.8 825.867 1061.6 821.467 1058.67 819.333C1056.53 817.733 1055.87 817.867 1053.73 820.133C1050.53 823.6 1048.8 823.467 1043.33 819.467C1037.73 815.333 1032.67 815.2 1028.93 819.067Z" fill="#1E1E1E"/>
<path d="M868.667 856.133V916.267L876.4 915.867L884 915.467V856.133V796.8L876.4 796.4L868.667 796V856.133Z" fill="#1E1E1E"/>
<path d="M1284.67 856.133V916.267L1292.4 915.867L1300 915.467V856.133V796.8L1292.4 796.4L1284.67 796V856.133Z" fill="#1E1E1E"/>
<path d="M13.4667 811.733C13.0667 814.533 10.9333 833.867 8.66667 854.8C6.53333 875.733 4.13333 897.6 3.33333 903.333C2.66667 909.2 2 914.4 2 915.067C2 915.733 5.73333 916.133 10.4 915.867L18.6667 915.467L19.7333 904.133C21.8667 879.867 26.1333 839.467 26.6667 839.067C27.3333 838.4 28 841.067 32.8 863.467C35.2 874.4 38.6667 890.667 40.6667 899.467L44.2667 915.467L49.0667 915.867L53.7333 916.267L55.7333 907.2C56.9333 902.267 60.6667 884.8 64.1333 868.4C67.7333 852.133 70.9333 838.8 71.3333 838.8C71.7333 838.8 73.2 850 74.4 863.733C75.7333 877.6 77.4667 894.933 78.2667 902.4L79.8667 916.133H87.6C95.0667 916.133 95.3333 916 95.3333 912.533C95.3333 909.2 90.8 866.667 86.2667 826.8L84 807.467L74.5333 807.067L65.0667 806.667L62.8 815.067C61.6 819.733 58.2667 834 55.2 846.8C52.2667 859.6 49.7333 870.267 49.3333 870.533C49.0667 870.8 48.5333 869.867 48.1333 868.533C46.6667 863.467 35.3333 810.8 35.3333 808.933C35.3333 807.2 33.4667 806.8 24.8 806.8H14.2667L13.4667 811.733Z" fill="#1E1E1E"/>
<path d="M620.667 861.467V916.133H628.667H636.667V861.467V806.8H628.667H620.667V861.467Z" fill="#1E1E1E"/>
<path d="M1227.33 861.467V916.133H1248.67H1270V906.8V897.6L1257.07 897.2L1244 896.8V883.467V870.133L1257.07 869.733L1270 869.333V860.133V850.8H1256.67H1243.33V838.133V825.467H1256.67H1270V816.133V806.8H1248.67H1227.33V861.467Z" fill="#1E1E1E"/>
<path d="M176.666 832.667C176.666 843.333 176.533 844 173.733 844.4C170.933 844.8 170.666 845.6 170.266 853.067C169.866 861.333 170 861.467 173.333 861.467H176.666V888.8V916.267L184.4 915.867L192 915.467L192.4 888.4L192.666 861.467H196.8H200.8L200.4 853.067C200 845.2 199.866 844.8 196.4 844.4C192.8 844 192.8 843.867 192.4 833.067L192 822.133L184.4 821.733L176.666 821.333V832.667Z" fill="#1E1E1E"/>
<path d="M768.667 832.8C768.667 844 768.667 844.133 765.333 844.133C762.133 844.133 762 844.4 762 852.8C762 861.2 762.133 861.467 765.333 861.467H768.667V888.8V916.267L776.267 915.867L783.867 915.467L783.733 892C783.6 863.6 783.867 861.467 788.133 861.467C791.2 861.467 791.333 861.067 791.333 852.8C791.333 844.4 791.2 844.133 788 844.133C786.133 844.133 784.667 843.733 784.533 843.067C784.533 842.533 784.4 837.6 784.267 832.133L784 822.133L776.4 821.733L768.667 821.333V832.8Z" fill="#1E1E1E"/>
<path d="M1377.6 822.4C1377.07 822.8 1376.67 828 1376.67 833.733C1376.67 843.2 1376.4 844.133 1374 844.133C1371.6 844.133 1371.33 845.067 1371.33 852.8C1371.33 860.533 1371.6 861.467 1374 861.467C1376.53 861.467 1376.67 862.533 1376.93 888.4L1377.33 915.467L1385.07 915.867L1392.67 916.267V888.8V861.467H1396.67H1400.67V852.8V844.133H1396.67H1392.67V832.8V821.467H1385.6C1381.6 821.467 1378 821.867 1377.6 822.4Z" fill="#1E1E1E"/>
<path d="M118.4 845.467C101.866 855.467 98.3997 890.933 112.266 909.2C116.533 914.8 121.866 917.467 129.2 917.467C134 917.467 136.133 916.667 140 913.333L144.666 909.2V912.667C144.666 916.133 144.8 916.267 152.4 915.867L160 915.467V880.133V844.8H152.666C146 844.8 145.333 845.067 144.933 847.867C144.533 850.933 144.4 850.933 139.866 846.8C136.133 843.6 134 842.8 128.933 842.8C125.066 842.8 121.066 843.867 118.4 845.467ZM139.6 864.533C145.066 871.333 146 882.933 142 891.733C137.466 902 128.133 902.8 122.8 893.467C117.466 884.533 120 865.733 126.933 861.467C130.4 859.467 136.933 861.067 139.6 864.533Z" fill="#1E1E1E"/>
<path d="M221.333 845.333C215.466 848.933 211.866 853.333 208.4 860.8C205.866 866.4 205.333 869.733 205.333 880.8C205.333 892.8 205.733 894.933 209.066 901.867C214.266 912.4 220 916.533 230.666 917.2C237.066 917.6 240 917.2 244.4 914.933C249.066 912.533 256.666 904.133 256.666 901.333C256.666 900.8 254 898.8 250.8 896.933L244.933 893.467L240.933 897.467C234.133 904.133 227.2 902.267 222 892.4C218.8 886 220.4 885.333 240.266 885.6L258.666 885.733L259.066 881.333C259.6 876 257.2 863.733 254.4 858.133C251.733 852.933 246.266 847.067 241.733 844.667C236.533 842 226.133 842.267 221.333 845.333ZM236.933 860.667C238.933 862.133 243.333 870.533 243.333 872.8C243.333 873.2 238.266 873.467 232 873.467C219.466 873.467 218.8 872.933 222.666 865.467C226 859.067 232.133 856.933 236.933 860.667Z" fill="#1E1E1E"/>
<path d="M292.8 844.933C291.2 846.133 288.667 849.6 287.333 852.667L284.8 858.133V851.067L284.667 844L277.067 844.4L269.333 844.8L268.933 880.4L268.667 916.133H276.667H284.667V898.8C284.667 870.8 288.133 861.867 298.533 863.067C304 863.733 304 863.6 305.333 851.067L306.267 842.8H301.067C298.267 842.8 294.533 843.733 292.8 844.933Z" fill="#1E1E1E"/>
<path d="M355.733 845.467C346 851.333 339.866 867.467 341.066 884.267C342.4 905.067 352 917.467 366.533 917.467C371.333 917.467 373.466 916.667 377.333 913.333L382 909.2V912.667C382 916 382.266 916.133 390 916.133H398V880.133V844.133H390C382.266 844.133 382 844.267 382 847.6V851.067L377.333 846.933C373.466 843.6 371.466 842.8 366.266 842.8C362.4 842.8 358.4 843.867 355.733 845.467ZM372.266 860.933C384.266 864.133 384.266 895.2 372.266 899.333C367.066 901.2 362.266 898.4 359.333 891.733C355.066 882.4 356.533 869.467 362.666 863.333C366 860 367.466 859.6 372.266 860.933Z" fill="#1E1E1E"/>
<path d="M451.333 845.733C445.333 849.733 442 856.533 442 864.8C442 874.4 445.333 880 454 885.2C464.4 891.333 466 892.933 466 897.467C466 903.467 460.8 905.2 453.466 901.6L448.133 898.8L444.4 902.4C439.866 906.667 439.733 908.933 443.733 912.4C448 916.267 451.866 917.467 459.6 917.467C473.333 917.467 481.066 909.867 481.2 896.267C481.333 886.4 478 880.667 468.666 875.067C457.6 868.533 456.4 867.333 456.933 862.4C457.333 858.533 457.733 858.133 462.4 857.733C465.866 857.467 468.4 858 470.133 859.6C471.6 860.8 472.933 861.6 473.066 861.333C473.333 861.067 474.933 858.533 476.666 855.733L479.733 850.533L476.266 847.067C473.333 844.267 471.2 843.467 464.4 843.067C457.333 842.667 455.333 843.067 451.333 845.733Z" fill="#1E1E1E"/>
<path d="M537.066 846.533C533.333 849.333 530.266 853.333 527.2 859.467C523.2 867.6 522.8 869.467 522.933 880.533C522.933 895.333 526.266 904.267 534.133 911.467C540.266 916.933 543.733 918 553.333 917.2C561.466 916.533 568.666 912 572.133 905.2C574.266 901.2 574.133 900.933 571.2 898.667C563.6 892.933 562.4 892.8 558.666 897.333C552.4 904.667 543.333 902.133 539.466 891.733C538.666 889.6 538.4 887.333 538.8 886.667C539.2 885.867 547.333 885.467 557.733 885.6L576 885.733L576.4 878.933C576.933 870.533 574 859.733 569.6 853.867C563.866 846 559.6 843.6 550.8 843.067C543.466 842.667 542.133 842.933 537.066 846.533ZM554.266 860.267C556.666 861.6 560.666 868.933 560.666 872.133C560.666 872.933 556.133 873.467 549.2 873.467C539.333 873.467 537.866 873.2 538.533 871.333C538.933 870.133 539.333 868.8 539.333 868.133C539.333 867.467 540.933 865.2 542.8 862.933C546.4 858.667 549.733 857.867 554.266 860.267Z" fill="#1E1E1E"/>
<path d="M674.4 845.6C672 847.2 670 848.933 670 849.6C670 850.267 669.466 850.8 668.666 850.8C668 850.8 667.333 849.333 667.333 847.467C667.333 844.267 666.933 844.133 660 844.133C653.6 844.133 652.666 844.533 652 847.067C651.6 848.8 651.466 864.8 651.6 882.8L652 915.467L659.6 915.867L667.066 916.267L667.6 893.2C668.133 867.067 669.733 860.933 676.133 859.333C685.066 857.067 687.2 863.467 687.2 893.067L687.333 916.133H694.666H701.866L702.8 911.2C704.133 904.267 702.4 861.733 700.666 855.6C699.733 852.667 697.333 848.667 695.333 846.533C692.266 843.467 690.4 842.8 685.066 842.8C680.933 842.8 677.2 843.867 674.4 845.6Z" fill="#1E1E1E"/>
<path d="M725.067 844.933C718.533 848.133 715.067 854.667 715.067 863.867C714.933 875.2 718.533 881.067 728.667 886.133C739.333 891.467 742.4 898.133 736 902.267C732.4 904.667 728.133 903.867 724 900C721.333 897.733 721.2 897.733 716.8 902.933C712.667 908 712.533 908.4 714.667 910.8C718.4 914.933 725.333 917.467 732.933 917.467C746 917.467 754 909.467 754 896.133C754 885.867 749.867 879.2 740.667 874.533C731.6 870 729.867 868 730.267 862.933C730.667 858.4 730.933 858.133 735.733 857.733C739.067 857.467 741.733 858 743.333 859.467C745.467 861.333 745.867 861.2 749.2 856C752.133 851.6 752.533 850.267 751.2 848.667C746.4 842.8 733.2 840.933 725.067 844.933Z" fill="#1E1E1E"/>
<path d="M811.2 846C799.2 854.133 793.733 875.2 798.666 894.133C802.666 909.467 810.8 917.467 822.266 917.467C827.466 917.467 829.466 916.667 833.333 913.333L838 909.2V912.667C838 916 838.266 916.133 846 916.133H854L853.733 880.4L853.333 844.8H846C839.333 844.8 838.666 845.067 838.266 847.867C837.866 850.933 837.733 850.933 833.2 846.8C827.066 841.467 818.266 841.2 811.2 846ZM832 863.333C838.4 869.733 839.733 882.8 835.066 892.133C829.2 903.6 819.333 902.533 814.933 890.133C808.666 872.133 821.066 852.4 832 863.333Z" fill="#1E1E1E"/>
<path d="M912 844C907.733 845.867 902.4 851.333 899.067 857.6C896.267 862.8 896 865.2 896 880.133C896 896.133 896.133 897.067 900 904C905.067 913.2 911.2 917.467 919.6 917.467C924.8 917.467 926.8 916.667 930.667 913.333L935.333 909.2V912.667C935.333 916 935.6 916.133 943.333 916.133H951.333L951.067 880.4L950.667 844.8H943.333C936.8 844.8 936 845.067 935.333 848.133C934.667 850.933 934.267 851.067 933.2 849.333C929.733 843.6 919.333 841.067 912 844ZM928.4 862.267C934.533 866.533 937.333 881.2 933.867 890.4C930.667 898.8 923.333 902.533 917.867 898.4C913.733 895.333 911.333 888.4 911.333 880.133C911.333 871.333 913.6 865.467 918.267 862.267C922 859.6 924.667 859.6 928.4 862.267Z" fill="#1E1E1E"/>
<path d="M982 844.534C970.533 850.667 965.466 857.867 963.066 871.734C960.133 889.067 965.6 905.734 976.933 913.067C981.066 915.867 984.4 916.8 991.2 917.2C1003.47 917.867 1005.73 915.867 1006.27 903.734C1006.53 898.8 1006.53 894.8 1006.4 894.8C1006.27 894.8 1004.13 896 1001.73 897.467C991.6 903.6 980.666 897.867 978.8 885.334C976.133 867.334 988.8 854.934 1001.73 862.8L1006 865.467V855.6C1006 846.534 1005.73 845.867 1002.67 844.4C998 842.267 986.133 842.4 982 844.534Z" fill="#1E1E1E"/>
<path d="M1032.67 844.267C1028 846.134 1020.93 853.334 1018 858.934C1012.13 870.134 1012.13 890.134 1018 901.334C1021.47 908.267 1030.27 915.867 1036 916.934C1049.47 919.467 1059.6 914.267 1066.67 901.334C1070 895.067 1070.67 892.4 1071.07 881.467C1071.6 869.2 1071.47 868.534 1067.07 860.267C1060.8 848.134 1054.8 843.734 1044.27 843.2C1039.73 842.934 1034.53 843.467 1032.67 844.267ZM1048.53 862.267C1052.93 865.334 1055.33 872.134 1055.33 881.067C1055.33 898.667 1041.6 906.4 1033.07 893.6C1029.33 888.134 1028.8 874.4 1032 868.134C1035.87 860.534 1042.67 858.134 1048.53 862.267Z" fill="#1E1E1E"/>
<path d="M1096 844.667C1090.8 846.934 1085.07 853.6 1081.47 861.467C1078.67 867.867 1077.6 885.334 1079.73 894.934C1081.2 902.134 1087.87 911.2 1094 914.667C1101.87 919.067 1114.27 918.267 1121.2 913.067C1125.2 909.867 1130 903.334 1130 900.934C1130 900.534 1127.33 898.667 1124.13 896.8L1118.27 893.334L1114.27 897.467C1109.33 902.4 1103.73 902.8 1099.6 898.4C1096.4 894.934 1093.6 888.4 1094.8 886.667C1095.2 886 1104 885.467 1114.27 885.467H1133.07L1132.27 875.467C1131.47 866 1128.13 857.067 1123.07 850.667C1117.33 843.6 1104.8 840.8 1096 844.667ZM1111.33 861.467C1114 864.134 1116.67 869.6 1116.67 872.267C1116.67 872.934 1111.6 873.467 1105.33 873.467C1098.27 873.467 1094 872.934 1094 872.134C1094 869.734 1098.27 862.267 1100.53 860.534C1103.73 858 1108.4 858.534 1111.33 861.467Z" fill="#1E1E1E"/>
<path d="M1150 845.733C1144 849.733 1140.67 856.4 1140.67 864.4C1140.67 875.6 1143.73 879.467 1161.07 890C1163.87 891.733 1164.67 893.2 1164.67 896.8C1164.67 904.4 1157.87 905.733 1149.73 899.867C1147.73 898.4 1146.67 898.8 1143.07 902.533C1138 907.467 1138.53 909.333 1146 914.4C1149.33 916.8 1152.27 917.467 1158.4 917.467C1172.8 917.467 1179.87 910.267 1180 895.333C1180 888.533 1179.47 886.533 1176.27 882.4C1174.13 879.6 1170 876.133 1166.93 874.667C1156.53 869.467 1152.67 863.333 1156.93 859.067C1159.2 856.8 1166.67 857.067 1168.67 859.467C1169.6 860.533 1170.67 861.467 1171.2 861.467C1172.4 861.467 1178 852.4 1178 850.533C1177.87 846.933 1170.8 843.6 1162.67 843.067C1156 842.667 1153.87 843.067 1150 845.733Z" fill="#1E1E1E"/>
<path d="M1327.87 845.334C1317.2 851.867 1311.33 864.267 1311.33 880.8C1311.33 897.734 1317.87 911.334 1328.13 915.6C1333.87 918 1345.2 918 1349.87 915.6C1354.4 913.2 1362 904.8 1362 902.134C1362 901.067 1359.6 898.534 1356.67 896.667L1351.33 893.2L1347.47 897.334C1343.33 901.734 1337.47 902.8 1333.73 899.734C1330.4 897.067 1327.33 891.734 1327.33 888.534C1327.33 885.6 1327.6 885.6 1345.47 885.6C1355.47 885.6 1364.27 885.067 1364.93 884.4C1367.2 882.134 1363.6 862.934 1359.87 856.534C1354.8 847.734 1347.2 842.8 1338.8 842.8C1334.53 842.8 1330.53 843.734 1327.87 845.334ZM1344.4 861.867C1346.13 863.6 1348 866.934 1348.67 869.2L1349.87 873.467H1338.53C1326.13 873.467 1325.47 872.934 1329.33 865.467C1333.07 858.267 1339.6 856.8 1344.4 861.867Z" fill="#1E1E1E"/>
<path d="M1431.87 846.4C1430.13 848.267 1428.13 851.467 1427.6 853.333C1426.8 856.4 1426.67 856 1426 850.8L1425.33 844.8L1417.73 844.4L1410 844V880.133V916.267L1417.73 915.867L1425.33 915.467L1426 893.467C1426.53 875.333 1427.07 870.667 1429.07 867.733C1431.6 863.867 1436.27 862.133 1441.2 863.333C1444.13 864 1444.4 863.6 1445.6 854.4C1446.4 849.2 1446.67 844.4 1446.4 843.733C1446.13 843.2 1443.47 842.8 1440.53 842.8C1436.53 842.8 1434.4 843.6 1431.87 846.4Z" fill="#1E1E1E"/>
<path d="M1500 845.067C1494.13 848.134 1488.8 853.467 1485.6 859.467C1483.07 864 1482.67 866.934 1482.67 880.134C1482.67 893.334 1483.07 896.267 1485.6 900.934C1489.6 908.267 1498.13 915.734 1504 916.934C1510.4 918.134 1521.47 916.934 1524 914.8C1526.27 912.934 1526.93 894.8 1524.67 894.8C1524 894.8 1523.33 895.334 1523.33 895.867C1523.33 897.467 1517.07 900.134 1513.33 900.134C1508.13 900.134 1503.47 897.334 1500.53 892.534C1498.13 888.8 1497.73 886.4 1498.27 878.667C1498.67 870.4 1499.2 868.934 1503.07 865.067C1506.67 861.6 1508.4 860.8 1513.2 860.8C1516.93 860.8 1520 861.6 1521.6 863.067C1523.07 864.4 1524.67 865.467 1525.07 865.467C1525.6 865.467 1526 861.334 1526 856.134C1526 847.2 1525.87 846.8 1522 844.8C1516.93 842.267 1505.2 842.267 1500 845.067Z" fill="#1E1E1E"/>
<path d="M1547.87 845.334C1537.73 851.6 1532.67 863.867 1532.67 881.467C1532.8 904.534 1543.6 918.667 1559.73 917.067C1564.93 916.667 1567.2 915.6 1569.6 912.934C1571.33 910.934 1572.8 909.867 1572.8 910.4C1572.93 910.934 1573.07 912.4 1573.2 913.467C1573.33 914.934 1575.33 915.6 1581.07 915.867L1588.67 916.267V880.134V844.134H1581.33C1575.07 844.134 1574 844.534 1574 846.534C1574 850.667 1572.53 850.8 1569.47 847.2C1565.33 842.4 1554 841.467 1547.87 845.334ZM1565.73 862.267C1570.4 865.467 1572.67 871.334 1572.67 880.134C1572.67 888.667 1571.47 892.134 1566.93 897.067C1559.47 905.334 1548.67 895.867 1548.67 881.067C1548.67 872.667 1551.07 865.867 1554.93 862.8C1559.07 859.6 1561.73 859.467 1565.73 862.267Z" fill="#1E1E1E"/>
<path d="M1612 845.334C1604.27 850 1602.8 852.934 1602.27 863.2C1601.73 874.934 1604.13 879.6 1613.6 884.934C1626.4 892.267 1629.33 897.867 1622.67 902.267C1619.6 904.267 1619.07 904.267 1613.73 901.6L1608 898.8L1603.47 903.334L1598.93 908L1603.2 912C1611.2 919.467 1627.07 919.6 1634.67 912.134C1646.67 900.534 1642.8 882.267 1626.8 874.134C1617.47 869.467 1616.4 868.134 1616.93 862.534C1617.33 858.534 1617.73 858.134 1622.4 857.734C1625.87 857.467 1628.4 858 1630 859.467C1632.4 861.6 1632.67 861.467 1636.13 856.267C1639.07 851.734 1639.47 850.534 1638 848.667C1632.8 842.534 1619.2 840.8 1612 845.334Z" fill="#1E1E1E"/>
<path d="M314 880.133V916.267L321.733 915.867L329.333 915.467V880.133V844.8L321.733 844.4L314 844V880.133Z" fill="#1E1E1E"/>
<path d="M412.667 880.133V916.133H420.667H428.667V880.133V844.133H420.667H412.667V880.133Z" fill="#1E1E1E"/>
<path d="M1454.93 845.067C1454.4 845.467 1454 861.733 1454 881.067V916.133H1462H1470V880.133V844.133H1462.93C1458.93 844.133 1455.33 844.533 1454.93 845.067Z" fill="#1E1E1E"/>
<path d="M986.4 931.467C983.2 937.6 980.667 943.467 980.667 944.4C980.667 946 985.867 950.267 986.533 949.2C986.8 948.933 990.4 944 994.667 938.267L1002.4 927.6L998.133 923.867C995.867 921.867 993.467 920.133 992.933 920.133C992.4 920.133 989.467 925.2 986.4 931.467Z" fill="#1E1E1E"/>
</svg>
